<?xml version="1.0" encoding="utf-8"?>
<!-- Generator: Adobe Illustrator 20.1.0, SVG Export Plug-In . SVG Version: 6.00 Build 0)  -->
<svg version="1.1" id="Layer_1" xmlns="http://www.w3.org/2000/svg" xmlns:xlink="http://www.w3.org/1999/xlink" x="0px" y="0px"
	 viewBox="0 0 1440 900" style="enable-background:new 0 0 1440 900;" xml:space="preserve">
<style type="text/css">
	.st0{fill:none;stroke:#000000;stroke-width:60;stroke-miterlimit:10;}
	.st1{fill-rule:evenodd;clip-rule:evenodd;fill:none;stroke:#000000;stroke-width:30;stroke-miterlimit:10;}
</style>
<g>
	<path d="M1136.2,436.4c48,0,93.2,18.7,127.1,52.7c34,34,52.7,79.1,52.7,127.1s-18.7,93.2-52.7,127.1c-34,34-79.1,52.7-127.1,52.7
		s-93.2-18.7-127.1-52.7c-34-34-52.7-79.1-52.7-127.1s18.7-93.2,52.7-127.1C1043,455.1,1088.2,436.4,1136.2,436.4 M1136.2,376.4
		c-132.4,0-239.8,107.4-239.8,239.8c0,132.4,107.4,239.8,239.8,239.8c132.4,0,239.8-107.4,239.8-239.8
		C1376,483.8,1268.7,376.4,1136.2,376.4L1136.2,376.4z"/>
</g>
<g>
	<line class="st0" x1="263.3" y1="562.6" x2="712.7" y2="113.1"/>
</g>
<polygon class="st1" points="204.9,145.2 200.1,187.4 165.8,162.2 131.6,137 170.6,120 209.6,103.1 "/>
</svg>
