<?xml version="1.0" encoding="utf-8"?>
<!-- Generator: Adobe Illustrator 20.1.0, SVG Export Plug-In . SVG Version: 6.00 Build 0)  -->
<svg version="1.1" id="Layer_1" xmlns="http://www.w3.org/2000/svg" xmlns:xlink="http://www.w3.org/1999/xlink" x="0px" y="0px"
	 viewBox="0 0 115 153.3" style="enable-background:new 0 0 115 153.3;" xml:space="preserve">
<title>logo</title>
<desc>Created with Sketch.</desc>
<g id="Page-1">
	<path d="M42.6,21.4c-1.1,0-2.2,0-3.3,0c-2.7,0-6,0-9.8,0l-8.7-0.5c0,0,0,0,0,0.5s0,0.5,0,0.5c3.3,0,5.4,0,7.1,0.5s2.7,1.1,3.3,2.7
		s1.1,3.8,1.1,6.5v80.5c0,7.1-0.5,12-1.1,14.7c-1.1,2.7-2.2,4.4-3.8,4.4c-0.5,0-1.6-0.5-2.2-1.1s-1.1-1.6-1.6-3.3
		c-1.1-2.2-2.2-4.4-3.3-5.4c-1.1-1.1-2.7-2.2-4.9-2.2s-3.8,0.5-4.9,2.2c-1.1,1.1-1.6,2.7-1.6,4.9c0,2.2,1.1,4.4,3.3,6
		s4.9,2.2,8.2,2.2c8.7,0,15.2-2.7,20.1-8.2c4.9-5.4,7.1-13.1,7.1-22.8V103c1.1,0,2.2,0,3.3,0h9.8h11.4c2.2,0,4.9,0,8.2,0
		c0,0,0.5,0,0.5-0.5s0-0.5-0.5-0.5c-3.8,0-6.5,0-8.2-0.5s-2.7-1.6-3.3-2.7c-0.5-1.1-1.1-3.3-1.1-6V32.9c0-3.3,0.5-5.4,1.1-6.5
		c1.1-1.1,2.7-1.6,4.9-1.6c5.4,0,9.8,1.6,12.5,5.4c2.7,3.8,4.4,9.2,4.4,15.8s-1.1,12-3.8,15.8s-6,5.4-9.8,5.4c-1.6,0-3.3,0-4.4-0.5
		h-0.5v0.5c0,0.5,0,0.5,0,0.5c1.6,0.5,3.8,0.5,6,0.5c4.4,0,9.2-1.1,13.6-2.7c4.4-2.2,8.2-4.9,10.9-8.7s4.4-8.2,4.4-13.6
		c0-7.6-2.7-13.6-7.6-17.4c-4.9-3.8-12-5.4-21.2-5.4c-2.2,0-4.4,0-6,0s-3.3,0-4.4,0c-2.7,0-5.4,0.5-7.6,0.5c-1.1,0-2.7,0-4.4,0
		C51.8,21.4,44.7,21.4,42.6,21.4z M51.8,92.2c0,2.7,0,4.4-0.5,6c-0.5,1.1-1.1,2.2-2.7,2.7c-0.5,0-1.1,0.5-2.2,0.5V31.8
		c0-2.7,0-4.4,0.5-6c0.5-1.1,1.1-2.2,2.2-2.2s1.6,1.1,2.2,2.2c0.5,1.1,0.5,3.3,0.5,6V92.2z"/>
</g>
</svg>
